<?xml version="1.0" encoding="utf-8"?>
<!-- Generator: Adobe Illustrator 18.0.0, SVG Export Plug-In . SVG Version: 6.00 Build 0)  -->
<!DOCTYPE svg PUBLIC "-//W3C//DTD SVG 1.1//EN" "http://www.w3.org/Graphics/SVG/1.1/DTD/svg11.dtd">
<svg version="1.1" id="Layer_1" xmlns="http://www.w3.org/2000/svg" xmlns:xlink="http://www.w3.org/1999/xlink" x="0px" y="0px"
	 viewBox="0 0 50 50" enable-background="new 0 0 50 50" xml:space="preserve">
<g>
	<g>
		<g>
			<path d="M22.1,30.4c-0.7,0-1.2-0.5-1.2-1.2v-8.5c0-0.7,0.5-1.2,1.2-1.2c0.7,0,1.2,0.5,1.2,1.2v8.5C23.3,29.9,22.8,30.4,22.1,30.4
				z"/>
		</g>
	</g>
	<g>
		<path d="M25,50C11.2,50,0,38.8,0,25S11.2,0,25,0s25,11.2,25,25S38.8,50,25,50z M25,0.5C11.5,0.5,0.5,11.5,0.5,25
			s11,24.5,24.5,24.5s24.5-11,24.5-24.5S38.5,0.5,25,0.5z"/>
	</g>
	<g>
		<path d="M22.1,19.6c-0.7,0-1.2,0.5-1.2,1.2v8.5c0,0.7,0.5,1.2,1.2,1.2c0.7,0,1.2-0.5,1.2-1.2v-8.5C23.3,20.1,22.8,19.6,22.1,19.6z
			"/>
		<path d="M28,19.6c-0.7,0-1.2,0.5-1.2,1.2v8.5c0,0.7,0.5,1.2,1.2,1.2c0.7,0,1.2-0.5,1.2-1.2v-8.5C29.2,20.1,28.7,19.6,28,19.6z"/>
	</g>
</g>
</svg>
