<?xml version="1.0" encoding="utf-8"?>
<!-- Generator: Adobe Illustrator 18.0.0, SVG Export Plug-In . SVG Version: 6.00 Build 0)  -->
<!DOCTYPE svg PUBLIC "-//W3C//DTD SVG 1.1//EN" "http://www.w3.org/Graphics/SVG/1.1/DTD/svg11.dtd">
<svg version="1.1" id="Layer_1" xmlns="http://www.w3.org/2000/svg" xmlns:xlink="http://www.w3.org/1999/xlink" x="0px" y="0px"
	 viewBox="0 0 50 50" enable-background="new 0 0 50 50" xml:space="preserve">
<g>
	<g>
		<path d="M25,50C11.2,50,0,38.8,0,25S11.2,0,25,0s25,11.2,25,25S38.8,50,25,50z M25,0.5C11.5,0.5,0.5,11.5,0.5,25
			s11,24.5,24.5,24.5s24.5-11,24.5-24.5S38.5,0.5,25,0.5z"/>
	</g>
	<path d="M29.5,24.2L23.7,20c-0.3-0.2-0.7-0.2-1-0.1c-0.3,0.2-0.5,0.5-0.5,0.8v8.5c0,0.4,0.2,0.7,0.5,0.8c0.1,0.1,0.3,0.1,0.4,0.1
		c0.2,0,0.4-0.1,0.6-0.2l5.8-4.2c0.2-0.2,0.4-0.5,0.4-0.8S29.7,24.4,29.5,24.2z"/>
</g>
<rect x="-20.1" y="-29.6" fill="none" width="42.3" height="42.3"/>
<rect x="0" y="0" fill="none" width="50" height="50"/>
</svg>
