<?xml version="1.0" encoding="utf-8"?>
<!-- Generator: Adobe Illustrator 18.0.0, SVG Export Plug-In . SVG Version: 6.00 Build 0)  -->
<!DOCTYPE svg PUBLIC "-//W3C//DTD SVG 1.1//EN" "http://www.w3.org/Graphics/SVG/1.1/DTD/svg11.dtd">
<svg version="1.1" id="Layer_1" xmlns="http://www.w3.org/2000/svg" xmlns:xlink="http://www.w3.org/1999/xlink" x="0px" y="0px"
	 viewBox="0 0 50 50" enable-background="new 0 0 50 50" xml:space="preserve">
<g>
	<path d="M32.5,20.7h3.1v1.7c0,0.4,0.2,0.7,0.6,0.9c0.3,0.2,0.8,0.1,1.1-0.1l6.3-4.6c0.3-0.2,0.4-0.5,0.4-0.8s-0.2-0.6-0.4-0.8
		l-6.3-4.6c-0.2-0.1-0.4-0.2-0.6-0.2c-0.2,0-0.3,0-0.5,0.1c-0.3,0.2-0.6,0.5-0.6,0.9v2.5h-3.4l-0.4,0c-3.2,0.6-5.8,3.6-8.9,7
		c-2.4,2.7-5,5.7-7.6,7H8.9v5h7.4l0.5-0.2c3.9-1.6,7.1-5.3,10-8.5C28.7,23.7,31,21.1,32.5,20.7z"/>
	<path d="M19.4,24c0.8-0.8,3.2-3.1,3.5-3.5c-2.2-2.3-3.5-3.4-6.3-4.5l-0.5-0.2H8.9v5h6.4C17.1,21.6,17.7,22.1,19.4,24z"/>
	<path d="M43.5,31.4l-6.3-4.6c-0.2-0.1-0.4-0.2-0.6-0.2c-0.2,0-0.3,0-0.5,0.1c-0.3,0.2-0.6,0.5-0.6,0.9v2.1h-3.1
		c-1.3-0.4-1.8-1.1-3.7-3.1c-0.2,0.3-2.4,2.8-3.4,3.8c2.6,2.9,3.5,3.9,6.3,4.3l0.4,0h3.4v2.1c0,0.4,0.2,0.7,0.6,0.9
		c0.3,0.2,0.8,0.1,1.1-0.1l6.3-4.6c0.3-0.2,0.4-0.5,0.4-0.8S43.7,31.6,43.5,31.4z"/>
</g>
</svg>
